<svg xmlns="http://www.w3.org/2000/svg" viewBox="0 0 350 290"><title>elixir-daze-logo</title><g id="036b5ba7-cbf6-4d2f-a84f-87d6c48f6aee" data-name="Layer 2"><path d="M38.73,52.56a9.93,9.93,0,0,1,.85.93c.21.3.51.65.43.93-.39,1.38.47,2.64.85,3.93a13.5,13.5,0,0,1,.65,5.92,8.17,8.17,0,0,1-1.24,3.08,2.65,2.65,0,0,1-.34.5c-.91.93-1.36,1-2.75.09a8.79,8.79,0,0,0-1.74,1.14,21.34,21.34,0,0,1-4.28,3.43,10.66,10.66,0,0,1-1.45.78,70.68,70.68,0,0,1-11.3,3.92,5.38,5.38,0,0,1-4.59-.69,9.18,9.18,0,0,0-2.11-.89c-3.29-1.1-6.06-2.47-6.84-5-.21-.69,0-1.22.81-1.7s1.58-1,2.44-1.6a1.26,1.26,0,0,1,1.17.74c.24.56.49,1.13.77,1.68a4,4,0,0,0,2.77,2.14,3,3,0,0,0,.81.15c5.36-.19,9.86-1.34,12.91-4.42A18.35,18.35,0,0,0,31,59.82a.93.93,0,0,0,0-.33c0-.62-.52-.82-1.31-.52a15.39,15.39,0,0,1-8.28.6c-1.6-.27-3.22-.48-4.81-.76-3.1-.53-5.59-1.53-7.07-3.5-1-1.34-1.76-2.74-2.72-4.08-.18-.25-.07-.6-.25-.86a2.91,2.91,0,0,0-1.13-1.16A2.19,2.19,0,0,1,4.1,47.89a2.92,2.92,0,0,1,.09-2.71c.08-.13.09-.3.22-.41.88-.72,1.77-1.42,2.67-2.13a8.72,8.72,0,0,1,1-.74,15.54,15.54,0,0,1,1.81-.95,25.71,25.71,0,0,0,3.42-1.43,10.86,10.86,0,0,1,3.57-1.24,18.23,18.23,0,0,1,9.92,1.09,2.6,2.6,0,0,1,.78.42c1.52,1.29,3,2.6,4.54,3.9.17.15.38.27.58.41,1.19.84,2.45,1.64,3.53,2.53a6.75,6.75,0,0,1,1.26,1.67,12.71,12.71,0,0,1,.63,1.22,24.49,24.49,0,0,1,2.37-.74,25.08,25.08,0,0,1,5.42-.38c1.14,0,2.28-.08,3.42-.09.67,0,1.34.06,2,.1a19.56,19.56,0,0,0,3.23.16,55.38,55.38,0,0,1,7.87.11,31.67,31.67,0,0,0,5.79-.21c1.46-.23,3.1.08,4.61-.05,2.54-.22,5.14.08,7.66-.4a17,17,0,0,1,2.21,0c2.21-.1,4.41-.26,6.62-.35,1.37-.06,2.76,0,4.13-.06s2.63-.1,3.94-.14l6.87-.19c1,0,2.05-.11,3.08-.13,3.07-.06,6.15-.12,9.22-.13,2.73,0,5.44-.14,8.16-.26,1.1,0,2.22.11,3.33.1s2.26-.12,3.39-.15l10.3-.34a7,7,0,0,1,.86,0,29.83,29.83,0,0,0,7.62-.38,1.42,1.42,0,0,1,.34,0c4,.34,8-.16,11.93-.23,2.35,0,4.7,0,7.05,0s4.56-.16,6.84-.24c.45,0,.91,0,1.36,0,.68,0,1.36.17,2,.15,2.66-.08,5.32,0,8-.29,2-.2,4-.08,6-.08,4.35,0,8.71,0,13.06,0,2,0,4,.14,6,.19a17,17,0,0,1,4.06.26c.36.1.95-.21,1.43-.21,1.14,0,2.29.09,3.43.1,3.37,0,6.74.11,10.12.11,2.84,0,5.69-.05,8.53-.09s5.84-.14,8.76-.12c5,0,9.94.17,14.91.23,1.2,0,2.39-.11,3.59-.14a57.84,57.84,0,0,1,8.53,0,3,3,0,0,0,.85,0c2.28-.43,4.55.08,6.82,0a41.28,41.28,0,0,1,5.82.13,3.4,3.4,0,0,0,1.18-.12,10.21,10.21,0,0,1,3.9-.05c1.4.17,2.8.34,4.21.45s2.59.05,3.84.23a10.54,10.54,0,0,1,2.18.78c.08.75-.5,1.08-1.44,1.37a27.37,27.37,0,0,1-7.4.68c-2.75.06-5.5.06-8.26.07-1.48,0-3-.09-4.43-.07-2.06,0-4.11.17-6.16.21q-4.29.09-8.59.11c-3.6,0-7.2,0-10.8,0a56.06,56.06,0,0,1-7,0,15,15,0,0,0-1.88.1l-10.49.09c-2.12,0-4.24.05-6.37.06-.74,0-1.48-.09-2.23-.1-1.48,0-3,0-4.44,0-3.44.07-6.86.15-10.3-.09-1.63-.11-3.3.07-4.95,0-3.64-.1-7.28.1-10.94-.06-4.1-.19-8.25,0-12.38.12-3.32.07-6.64.23-10,.29-2.27,0-4.54,0-6.81,0-1.76,0-3.52.12-5.28.17l-3.73.09c-2,.05-4,.09-6,.17-1.31.05-2.6.22-3.91.26s-2.64,0-4,0c-2.75,0-5.5.08-8.25.15q-8.67.22-17.34.46c-3,.09-6.06.22-9.09.3-2.57.07-5.15.07-7.73.14-1,0-2,.21-3,.23-2.1.05-4.21,0-6.32.08-3.49.09-7,.19-10.46.33-2.62.1-5.23.38-7.85.39-3.5,0-7,.12-10.48.24-2.56.09-5.14-.09-7.72-.13-1,0-2.07,0-3.1,0-1.37,0-2.73-.14-4.1-.17-.67,0-1.36.13-2,.12-1.42,0-2.84-.11-4.26-.17a2.75,2.75,0,0,0-.34,0,17.55,17.55,0,0,1-6.24-.21ZM16.68,48a3.13,3.13,0,0,0-.19,1c.17,1.09.47,2.18.64,3.27.09.62.64,1,1.3,1.37,1.17.63,1.92.49,2.38-.45a2.53,2.53,0,0,0,.18-.87,6.21,6.21,0,0,1,.1-1.32c.33-1-.5-1.8-1.36-2.51A3.47,3.47,0,0,0,16.68,48Zm8.34-1c.11-1.34-.28-1.57-2.5-1.82Z" fill="#7d5e21"/><path d="M184.88,4.67c.77.43,1.39.8,2.05,1.13,1.66.83,3.31,1.68,5,2.47s3.41,1.5,5.12,2.24a1.9,1.9,0,0,0,.46.14,7.08,7.08,0,0,1,2.58,1,5.67,5.67,0,0,0,1.76.61c1.84.32,2.43.92,2.06,2.09a1.53,1.53,0,0,0,.19,1.15,2.47,2.47,0,0,1,.27,2.53,28.94,28.94,0,0,0-1.43,5.1,12.33,12.33,0,0,1-.9,2.7,5.14,5.14,0,0,0-.39,3.68c2.2.54,2.32,1.73,1.43,2.62a8.45,8.45,0,0,1-1.19,1.08,14.09,14.09,0,0,1-1.56.81c0,.11-.08.18-.06.25.17.6.63,1.14-.09,1.78a7.89,7.89,0,0,1-3.89,2.22,3.13,3.13,0,0,1-1.36,0c-1.66-.5-3.4-.14-5.07-.28-2.93-.24-5.81.27-8.71.07-.34,0-.69,0-1,0a16.23,16.23,0,0,1-4.24-.22,11.78,11.78,0,0,0-2-.11c-2.8-.12-5.59,0-8.39.05a3.86,3.86,0,0,1-3.14-1.11c-.74-.81-.79-1.32.3-2s1.12-1.25.52-2.07a9.72,9.72,0,0,1-1.06-2.22c-.46-1.14-.88-2.29-1.31-3.44a1.32,1.32,0,0,1-.13-.55,9.77,9.77,0,0,0-.89-3.81c-.4-1.22-.67-2.47-1-3.7a4.73,4.73,0,0,0-.52-1.62,2.89,2.89,0,0,1-.14-2.51c.12-.63.81-1,1.65-1.34a46.73,46.73,0,0,0,4.39-1.72c1.57-.78,2.94-1.72,4.43-2.57,1.79-1,3.62-2,5.43-3a9.53,9.53,0,0,0,1.74-1.06,13.78,13.78,0,0,1,2.55-1.87,5.76,5.76,0,0,1,2.46-.85,22.88,22.88,0,0,0,2.39-.6,19.76,19.76,0,0,1,2.14-.32c.66-.07,1.38,0,1.6.45a1,1,0,0,1-.32,1.45C186,3.78,185.52,4.19,184.88,4.67Zm10.43,24.61c.23-.33.47-.51.44-.66-.21-1.17-.07-2.38-1-3.62A3.9,3.9,0,0,0,195.31,29.28Zm-11.78,2.19-2.59-.37c-.79-.11-1.27.05-1.27.43s.24.72,1,.72c.56,0,1.13,0,1.69,0S183.5,32,183.53,31.48Zm5.41-14.8a6.73,6.73,0,0,0,.32-2.15c-.11-.65.6-1.46-.83-2.1C188.06,14,188.76,15.32,188.94,16.67Zm.41,1h-.41c-.45.65-.45.65.16,1.33Zm-13.76-7.46.14.2a5.21,5.21,0,0,0,1.17-.21c.16-.07.05-.38.08-.8ZM195,23.55l-.27,0a7,7,0,0,0-.16.7s.15.09.42.23Zm-25.59,8c-.23.12-.53.24-.51.27a2.11,2.11,0,0,0,.43.39,2.33,2.33,0,0,0,.51-.35S169.58,31.68,169.39,31.55ZM173.82,19l-.26,0-.16.46.26,0Z" fill="#7d5e21"/><path d="M317.83,42.88c-.57.32-1.12.58-1.59.9a4.41,4.41,0,0,1-3,.53c-.72-.08-1.46-.06-2.2-.08l-3.25-.14c-3.08-.12-6.18-.41-9.24-.29-1.94.08-3.87.09-5.8.09-4.35,0-8.71-.13-13,0s-8.71,0-13.06-.1c-2.11,0-4.23.06-6.34,0-3.27,0-6.54-.15-9.81-.19-1.65,0-3.31.06-5,0-4.41,0-8.81-.07-13.22-.08-2.47,0-4.94.11-7.41.09-3,0-5.94-.13-8.92-.18-1.59,0-3.19,0-4.79,0-2.58,0-5.16-.08-7.73-.13h-.68c-7.17.08-14.35.19-21.52.24-4.87,0-9.75,0-14.62,0-3.32,0-6.65.11-10,.12-2.23,0-4.46-.12-6.69-.1-3.26,0-6.52.12-9.78.19-2.87.07-5.75.05-8.59.26-3.38.24-6.73-.19-10.09,0-2.11.11-4.23.16-6.34.23-5.66.18-11.33.32-17,.54-3.14.12-6.26.48-9.4.53-2.5,0-5,.47-7.52.19-1-.11-2,.21-3.06.2a33.54,33.54,0,0,1-5.41-.22,14.93,14.93,0,0,0-3.4.22,7.82,7.82,0,0,1-1.19.09,124.52,124.52,0,0,0-17.12.08c-1.13.07-2.25.17-3.38.23a21.88,21.88,0,0,1-6-.25c-.9-.2-1.92-.16-2.83-.33-1.66-.32-1.81-.71-1.89-1.82-.06-.86.38-1.44,1.36-1.87a6.75,6.75,0,0,1,3.25-.4c2.26.14,4.56,0,6.84,0,1.14,0,2.28-.07,3.42-.07,2.79,0,5.55-.18,8.37-.1a99.68,99.68,0,0,0,10.28.06,42.64,42.64,0,0,1,8-.25,21.53,21.53,0,0,0,2.48-.31c2,0,4,0,6,0,1,0,2,0,3,0s1.81,0,2.71,0A9.29,9.29,0,0,0,96,40.49a1.79,1.79,0,0,1,.82-.11,13.64,13.64,0,0,0,3.57-.05c4.06-.15,8.12-.32,12.19-.44,2.06-.06,4.13,0,6.19,0,1.3,0,2.61-.09,3.91-.05s2.6.19,3.91.25q2.21.11,4.43.15c.74,0,1.48,0,2.22-.06,1.93-.05,3.85-.13,5.78-.16,4-.06,8-.07,12.06-.15,3.78-.07,7.56-.22,11.35-.27,2.92,0,5.84.06,8.77.05,1.88,0,3.75-.12,5.63-.14,2.29,0,4.59.15,6.86,0,4.19-.25,8.37.44,12.54-.07h.17c4,.16,8,0,12-.1s8,.12,12,.22c.94,0,2-.25,2.81.24a.91.91,0,0,0,.5,0c2.62-.59,5.34-.35,8-.32,3.14,0,6.27.08,9.41,0,2.29,0,4.59-.07,6.88-.06,3.71,0,7.44,0,11.14.14,3.18.15,6.34,0,9.5,0l14.6.14c3.61,0,7.23.08,10.84,0,2.46,0,4.89,0,7.34.2.72,0,1.46-.08,2.19-.08,3.72,0,7.45,0,11.17,0a2.92,2.92,0,0,1,2.9,1.69A12.57,12.57,0,0,1,317.83,42.88Z" fill="#7d5e21"/><path d="M99.28,17.08c.58-.76,1.05-1.46,1.63-2.11a16.86,16.86,0,0,1,1.86-1.85,25.52,25.52,0,0,1,7-4,3.31,3.31,0,0,1,1-.18c2.11-.12,4.22-.36,6.32-.3a10.54,10.54,0,0,1,5.18,1.3c1,.61,2.1,1.14,3.06,1.77a5.29,5.29,0,0,1,2.36,4.06c.09.57-.46,1-1.19,1.26s-.85.56-.81,1c.11,1.18.22,2.36.35,3.54.09.77.25,1.54.31,2.32.22,2.65.46,5.31.61,8a32.8,32.8,0,0,1-.14,3.3l1.57.37a2.29,2.29,0,0,1,1.75,1.28c.24.5-.06,1-.8,1a19.05,19.05,0,0,0-3.56.66,11.45,11.45,0,0,1-2.56.06c-3.38,0-6.76,0-10.14,0-1.37,0-2.74,0-4.09.09s-2.55.34-3.84.45c-1.77.16-3.86-.88-4.17-1.86,0-.14-.18-.35-.08-.42.84-.63.75-1.51,1.41-2.16a1.37,1.37,0,0,0,.42-1.36c-.31-1.61-.59-3.23-.88-4.85,0-.07,0-.15,0-.22-1.52-2.22-.93-4.62-1.52-6.92C99.91,19.82,99.6,18.42,99.28,17.08ZM115.76,14c-.29-.15-.45-.29-.58-.28a.69.69,0,0,0-.48.23c0,.09.21.32.26.32A4.39,4.39,0,0,0,115.76,14Z" fill="#7d5e21"/><path d="M323.51,50.85a8.57,8.57,0,0,0,.95,5.68,2.82,2.82,0,0,0,2.1,1.51c.2,0,.33.2.51.29a9.85,9.85,0,0,0,4.56,1.05,20.79,20.79,0,0,0,6.78-.86,16.7,16.7,0,0,1,2.3-.44c.7-.13,1.35,0,1.56.44.12.25-.08.66-.36.87a15.48,15.48,0,0,1-1.78,1c-.4.23-.79.46-.28,1l2-.31a6.65,6.65,0,0,1,1.32-.22,3.39,3.39,0,0,1,1.54.34c.45.33.12.74-.26,1.11-1.27,1.24-3.32,1.64-5.31,2.11-.48.11-1,.19-1.46.33a20,20,0,0,1-9.53.23c-1-.18-2-.29-3-.38-1.69-.15-2.76-1-4.15-1.49a6.49,6.49,0,0,1-2.3-1.29c-1.21-1.17-2.79-2.17-3.46-3.59-.95-2-1.8-4-1.19-6.09.19-.65.27-1.31.52-1.94a43.2,43.2,0,0,1,1.77-4,1.32,1.32,0,0,0,0-1.28.84.84,0,0,0-.15-.2,4.35,4.35,0,0,1-.81-4.82,8.79,8.79,0,0,1,1.71-2.12,4.21,4.21,0,0,0,.84-1.07,4.88,4.88,0,0,1,2.33-2.51,22.16,22.16,0,0,1,12.64-2.75,25.61,25.61,0,0,1,5.57.6,12,12,0,0,1,4.26,2c3.27,2.58,4.24,5.58,2.8,8.73a11.49,11.49,0,0,1-3.91,4.78,19.27,19.27,0,0,1-4.45,2.38,11.13,11.13,0,0,1-2.74.6c-1.35.13-2.73.09-4.1.16s-2.84.2-4.26.25C325.3,51,324.51,50.89,323.51,50.85Zm5-11.2a6.14,6.14,0,0,0-1.44.62c-.56.42.16.7.55,1,.65.53.83,1.1.22,1.73a4.31,4.31,0,0,0-.81,1.21c-.29.64.37,1.57,1.26,1.91.71.27,1.32.11,2.33-.59a1.92,1.92,0,0,0,.5-.44c.49-.74,1-1.48,1.4-2.23C333.34,41.45,331.31,39.63,328.49,39.65Z" fill="#7d5e21"/><path d="M262.32,33c-.27.74-.54,1.42-.78,2.1-.58,1.63-2.35,2.34-4.85,1.94a28.77,28.77,0,0,0-7.91.3c-1.73.35-3.54.53-5.33.76q-1.83.24-3.67.43c-2.43.25-3.76-.58-3.48-2.25-2.84-.54-2.86-2.26-3.09-3.67a59.7,59.7,0,0,1-.64-8.39,49.78,49.78,0,0,1,.4-5.42c0-.44.18-.88.19-1.32,0-1.36.8-2,2.69-2.49a5.68,5.68,0,0,0,2.27-1.28,12.66,12.66,0,0,1,3.42-2.29,13.76,13.76,0,0,1,2.72-.89c1.92-.43,3.88-.81,5.84-1.16a4.33,4.33,0,0,1,2.93.32c1.1.62,2.45,1.07,3.08,2a2.83,2.83,0,0,0,1.39.71,3,3,0,0,1,2,2.16,4.31,4.31,0,0,1,.06.89,36,36,0,0,1-.31,6.72,10.59,10.59,0,0,0,.4,2.39c.15,1.54.24,3.09.29,4.63a4.46,4.46,0,0,1-.31,1.2c-.18.7-.09,1.3,1,1.72A10.41,10.41,0,0,1,262.32,33Z" fill="#7d5e21"/><path d="M86.59,13c1-.38,1.74-.73,2.56-.94,2.07-.55,5-.08,5.23,2,.05.41.1.81.16,1.22q.66,4.36,1.32,8.72a.75.75,0,0,1,0,.33c-.48,1.45.32,2.85.41,4.28,0,.54.47,1.06.56,1.6a17.6,17.6,0,0,1,.27,2.72A3.18,3.18,0,0,1,96.76,34c1.49.86,1.47,1.32.29,2.29a4.38,4.38,0,0,1-2.71,1,14.61,14.61,0,0,0-2.53.61,7.65,7.65,0,0,1-1.41.33c-1.87.11-3.74.19-5.61.22-2.34,0-4.69.17-7,0a34.72,34.72,0,0,1-5.46-.93,2.07,2.07,0,0,1-1.82-2.08c-.09-1.57,0-3.15-.15-4.72a28.37,28.37,0,0,0-.72-3c-.26-1.24-.33-2.5-.71-3.72-.66-2.13-.57-4.32-1.48-6.42-.55-1.28.65-2.41,2.67-2.53A5.36,5.36,0,0,0,72.57,14c.75-.37,1.47-.77,2.21-1.15.13-.07.38-.06.46-.13,1.19-1.21,3.23-.86,4.92-1.09a8.34,8.34,0,0,1,5.37,1A8.86,8.86,0,0,0,86.59,13Z" fill="#7d5e21"/><path d="M62.78,33.49l1.4,1.24c.83.73.35,1.45-.95,1.76a53.37,53.37,0,0,1-6.89.76c-3,.32-6,.33-8.94.58a4.83,4.83,0,0,0-1,.09c-2,.67-3.38-.13-4.76-.84a1.07,1.07,0,0,1-.5-.67c-.27-1-.46-2-.71-3-.56-2.22-1-4.46-1.77-6.65s-1-4.74-2.29-7a.55.55,0,0,1,0-.53c.5-.85,1.07-1.69,1.57-2.54.24-.41.32-.86.56-1.27a6.31,6.31,0,0,1,1.11-1.59c.88-.81,1.91-1.55,2.91-2.3a2.6,2.6,0,0,1,.85-.28,5.51,5.51,0,0,0,.64-.07c2.23-.93,4.71-.78,7.1-.55a9.5,9.5,0,0,1,3.45,1.13A5.87,5.87,0,0,1,57,13.63c.05.1.25.21.23.29-.43,1.43,1.36,1.59,2.72,1.85a2.41,2.41,0,0,1,2.2,1.9c.39,1.26.59,2.55.88,3.82.37,1.64.75,3.27,1.1,4.91.27,1.28.42,2.57.78,3.84a1.94,1.94,0,0,1-1.1,2.4A10,10,0,0,0,62.78,33.49Z" fill="#7d5e21"/><path d="M153.64,33.2c.67.31,1.14.52,1.59.74,1.39.69,1.38,1.7,0,2.36a6.69,6.69,0,0,1-1.37.44c-1.09.23-2.22.39-3.28.65a18.69,18.69,0,0,1-4.37.17,49.73,49.73,0,0,1-8.28-.68c-1.37-.22-2.8-.27-4.2-.42s-1.86-.69-2.1-1.51a14.59,14.59,0,0,1-.32-6.18,13.93,13.93,0,0,0,.14-4.39,16.59,16.59,0,0,1-.07-5.41c.24-1.5.47-3,.56-4.51a1.35,1.35,0,0,1,.68-.85c2-1.25,4-2.56,6.18-3.67a16.7,16.7,0,0,1,4.33-1.25,9.18,9.18,0,0,1,3.52-.19,7.06,7.06,0,0,1,5.33,3.6,2.39,2.39,0,0,1,.12,2.36,2.61,2.61,0,0,0,0,2c.31.82,0,1.81,1.31,2.42.13.06.11.28.12.42,0,1.25,0,2.5.12,3.75a23.36,23.36,0,0,0,.42,2.52c0,.14.2.28.21.42a12,12,0,0,0,.18,3.12,6.87,6.87,0,0,1-.23,3.08A3.84,3.84,0,0,1,153.64,33.2Z" fill="#7d5e21"/><path d="M287.34,32.58c1.88-.13,2.5.74,3.29,1.57a6,6,0,0,1-3.57,2.22c-1.19.24-2.27.7-3.45,1-3.5.8-7.13.47-10.72.43a20.28,20.28,0,0,1-3.52-.41c-2-.38-3.6-1.07-4.41-2.38a.93.93,0,0,1,.15-1.33,2.35,2.35,0,0,0,.65-1.45c.15-2,.22-3.91.29-5.87,0-.74-.07-1.48-.07-2.22,0-1.66,0-3.32,0-5a21.45,21.45,0,0,1,.13-2.3c.08-.66.85-1.06,1.64-1.35a25.46,25.46,0,0,0,5.38-2.86,9.31,9.31,0,0,1,3-1.09c2-.45,4.08-1.08,6.32-.44a3.1,3.1,0,0,1,.93.28c.9.77,2.26.91,3.54,1.19a2.75,2.75,0,0,1,.93.46c.31.21.49.54.85.68,1.63.63,1.15,1.44.6,2.3-1.06,1.65-.7,3.41-.83,5.13-.09,1.22.11,2.44,0,3.66-.05.8-.45,1.6-.56,2.4C287.66,28.93,287.52,30.7,287.34,32.58Z" fill="#7d5e21"/><path d="M208.3,33.37c0-1.31-.09-2.59,0-3.87.18-2.21.48-4.41.74-6.62.14-1.14.29-2.28.46-3.42.08-.56,0-1-1-1.24a1.27,1.27,0,0,1-.79-.77c-.28-.89.14-1.68,1.11-2.34s1.84-1.32,2.8-2a5.55,5.55,0,0,1,1-.42,12.34,12.34,0,0,0,1.6-.63c2-1.15,4.44-1.27,6.89-1.36a3.24,3.24,0,0,1,1.52.42,18.18,18.18,0,0,1,4.09,3.24,4.91,4.91,0,0,1,.93,1.53,12.19,12.19,0,0,1,1.51,4.27,17.17,17.17,0,0,0,.81,3.27,3.92,3.92,0,0,1,.08.86c0,.11-.13.22-.1.32.56,1.77-.08,3.53,0,5.3A1.67,1.67,0,0,0,231,31.63c.63.3.83,1.71.31,2.09s-.34.51-.14.86c.65,1.15-.32,2.88-2,3.28a12.86,12.86,0,0,1-3.51.1c-3.7-.23-7.39-.53-11.09-.78a6.44,6.44,0,0,0-1.34.15,6.13,6.13,0,0,1-3-.23c-.75-.26-1.59-.41-2.31-.69-2-.77-1.91-2.09.08-2.85A3.31,3.31,0,0,0,208.3,33.37Zm10.87-6.73c-.91.25-.74.86-1,1.31a7.23,7.23,0,0,0-.41,2.76c.51-.25.87-.34.89-.45.14-1,.21-2,.32-2.93a7,7,0,0,1,.16-.69l-.24-1C218.3,26.09,218.7,26.37,219.16,26.64Z" fill="#7d5e21"/><path d="M297.25,36.54c-1.78-.19-3.5.34-4.93-.24-1.07-1.09-.35-2.14-.18-3.18a23.7,23.7,0,0,0,.6-6,16.06,16.06,0,0,1,.26-2.87c.1-1.1.21-2.21.28-3.31s0-1.92.12-2.87,1.59-1.92,2.88-2.1c1.12-.16,2.27-.19,2.86-1,.13-.18.8-.24,1.24-.29a18.43,18.43,0,0,0,4.68-1,8,8,0,0,1,3.5-.23,30.35,30.35,0,0,1,5.3,1.26c1,.35,1.78,1.07,1.76,1.92,0,1.77,0,3.55-.22,5.31-.15,1.36-.58,2.7-.87,4-.32,1.53-.6,3.07-.94,4.6a8.69,8.69,0,0,1-.66,2.27c-.75,1.42-.35,2.86-.45,4.29-.05.81-.66,1.16-1.93,1.15-.55,0-1.1.1-1.65.13s-1,0-1.51,0a11.35,11.35,0,0,0-2.54,0c-2.07.54-4.06,0-6.08,0a1.33,1.33,0,0,1-1.35-.88A7.13,7.13,0,0,1,297.25,36.54Z" fill="#7d5e21"/><path d="M313.42,241.26l1.16-2.8-11.33.16c-2.07,0-4.15,0-6.22,0-3.17,0-6.35.16-9.52.14-3.82,0-7.64.23-11.47,0-1.49-.09-3,.07-4.55.07-2.25,0-4.49-.06-6.74-.09-2.68,0-5.37-.09-8.05-.08-2.93,0-5.86.09-8.79.09-3.11,0-6.23-.08-9.34,0-5.14.05-10.27.18-15.41.24-2,0-4.05,0-6.06-.09s-4,.11-5.94.09c-3.61,0-7.22,0-10.82.05-5.13.06-10.26.16-15.39.23-2.14,0-4.29,0-6.43,0-2.55,0-5.09.11-7.64.13-4,0-7.94,0-11.91,0-2.69,0-5.38,0-8.07,0-3.41,0-6.82-.14-10.23-.16s-7,0-10.45,0c-2.74,0-5.48,0-8.21,0-3,0-6,.09-9,.13-.54,0-1.09-.06-1.64-.06-2.85,0-5.71-.09-8.56-.07-4,0-7.95.14-11.92.19-2.62,0-5.25,0-7.88,0-3.12,0-6.23.13-9.35.19q-1.92,0-3.84,0c-1.4,0-2.79,0-4.19,0-2.38,0-4.77,0-7.15,0-1,0-2.06.14-3.09.17-1.39,0-2.79,0-4.18,0q-3.85-.08-7.69-.22c-2.43-.09-4.33-1-4.27-2.07,0-.82,1.16-1.75,3.34-1.47a34.69,34.69,0,0,0,5.57.37c1.71-.06,3.39,0,5.09,0,2.41,0,4.83,0,7.24,0,1,0,2,0,2.93,0,2.92,0,5.84.07,8.76.06,1.7,0,3.4-.11,5.11-.17.72,0,1.44-.08,2.16-.06,4.7.1,9.37-.3,14.08-.11,1.69.07,3.41-.07,5.12-.08,3.77,0,7.55,0,11.33,0,1.21,0,2.42-.05,3.64-.08.67,0,1.35,0,2,0,4,0,8,.11,11.9,0a81.54,81.54,0,0,1,9.51.25,9.82,9.82,0,0,0,2,0,51.35,51.35,0,0,1,7.3-.14c.52,0,1,0,1.56,0,1,0,2-.11,2.92,0,2.48.16,5,.16,7.46.15,1.9,0,3.72-.29,5.59-.24s3.89.16,5.84.24c.73,0,1.46.12,2.18.1,2.94-.09,5.88-.17,8.8-.32s6.1,0,9.15,0,6.36-.08,9.54-.08c2,0,4,.1,6,.14.43,0,.86,0,1.28,0,2.86-.09,5.72-.2,8.58-.26,1.64,0,3.3.05,4.94,0,1.13,0,2.27-.15,3.4-.12,1.88,0,3.76.21,5.64.27,1.1,0,2.2-.05,3.31-.08,3.1-.1,6.21-.25,9.31-.27,3.3,0,6.61.05,9.91.1,1,0,2.07.15,3.1.15,2.43,0,4.85-.06,7.28-.08,1.28,0,2.59.1,3.83,0a82,82,0,0,1,9.8,0c1.93,0,3.88,0,5.82-.11,2.7-.08,5.39-.22,8.08-.27,1.57,0,3.15.1,4.73.11,2,0,3.91,0,5.85-.05a8,8,0,0,1,2.12.11,5.06,5.06,0,0,0,1.94.06,18.22,18.22,0,0,1,4.71-.23,66.6,66.6,0,0,0,7.1-.33c.12,0,.23,0,.35-.06a5.66,5.66,0,0,1,4.63,1.2c.81.85-.21,1.45-1,2.08a7,7,0,0,1-1.13.56c.1.11.14.24.3.32,1.86,1,2.36,2.28,3.3,3.48,1.18,1.51-.41,2.85-3.51,3.07a11.18,11.18,0,0,1-3.21-.21,18.45,18.45,0,0,0-3.59-.31,26.19,26.19,0,0,0-6.6.46,16.33,16.33,0,0,1-3.79.16c-2.75,0-5.5-.15-8.25-.2q-6.15-.12-12.3-.18c-2.3,0-4.59,0-6.89,0-2.82,0-5.63-.08-8.45-.11-3.55,0-7.1,0-10.65-.08-3.12,0-6.24-.16-9.36-.18-4.09,0-8.19,0-12.28,0h-2.57c-2.56,0-5.13,0-7.69,0-2.26,0-4.53.09-6.79.13s-4.27.09-6.41.09c-4.75,0-9.5,0-14.25,0-2.44,0-4.87-.17-7.31-.25l-6.8-.21c-3.17-.09-6.35-.19-9.53-.23s-6.6,0-9.9,0c-3.06,0-6.12-.09-9.17-.09s-6.35.12-9.52.1c-3.41,0-6.81.18-10.23,0-1.93-.09-3.91.05-5.86.08-.41,0-.83,0-1.24,0l-2.74,0c-1.82,0-3.64-.08-5.46-.1-1.53,0-3.07-.07-4.58,0-2.13.12-4.25.11-6.38.14-4.65.07-9.3.19-13.94.34-4.34.14-8.67.36-13,.49-2.31.07-4.63,0-6.94,0-1.35,0-2.69.05-4,.05-4.47,0-8.94,0-13.41,0-4.28,0-8.57.14-12.83,0-1.74,0-3.8.1-5.26-.72a4.94,4.94,0,0,0-1-.26c-1.7-.45-2-1.27-.7-2a3.68,3.68,0,0,1,3-.53,1.7,1.7,0,0,0,.55,0,45.61,45.61,0,0,1,6.89.13c3,.07,6.06.23,9.1.29,2.38,0,4.76,0,7.15,0,1.34,0,2.67,0,4,0,.67,0,1.33-.11,2-.13,1.52,0,3-.09,4.56-.1,1.09,0,2.19.06,3.28,0,3.72-.07,7.44-.14,11.15-.25,2.31-.07,4.62-.21,6.93-.31,1.07,0,2.15-.1,3.22-.12,3-.06,6.08-.06,9.12-.15,3.34-.1,6.68-.31,10-.38,2,0,4,.06,6,.11.53,0,1.07.06,1.59,0a33.64,33.64,0,0,1,5.29.05,11.56,11.56,0,0,0,2.38,0,74.07,74.07,0,0,1,8.25-.1c.55,0,1.1,0,1.65,0l4.88-.08c1.86,0,3.72-.09,5.59-.12a19.34,19.34,0,0,1,2,.05,20.74,20.74,0,0,0,5.52.19,24.32,24.32,0,0,1,3.45-.08c3.47,0,6.93.14,10.4-.05a27.45,27.45,0,0,1,3.85.32c.24,0,.48.08.71.08,2.69,0,5.38,0,8.07,0,1.52,0,3,.1,4.55.16a6.32,6.32,0,0,0,.9,0c2-.23,4,.12,6,0a1.87,1.87,0,0,1,.54,0c1.81.58,3.62.12,5.45.07s3.62.12,5.43.2c.48,0,1,.13,1.44.11,1.75-.05,3.5-.17,5.25-.21,2.57-.05,5.14-.07,7.71-.09l6.43,0c4.13,0,8.23-.31,12.41,0,3.8.23,7.7,0,11.56,0a40.18,40.18,0,0,0,4.22,0c2.51-.27,4.94.16,7.45,0s4.88,0,7.32.07c1.53,0,3.07,0,4.6,0,1.83,0,3.66.13,5.49.19h.55c3.77-.08,7.53-.17,11.3-.23,1.28,0,2.58.13,3.85.08,2.16-.08,4.3-.29,6.46-.39,1.83-.08,3.66-.08,5.5-.11C312,241.25,312.73,241.26,313.42,241.26Z" fill="#7d5e21"/><path d="M173,247.86c2.11-1.06,4.15-.78,6.3-.55,1.52.17,3.15,0,4.72.1a32.41,32.41,0,0,1,4.5.4c1.94.38,3.44,1.1,4.05,2.21.72,1.28,1.49,2.55,2.11,3.84a3.62,3.62,0,0,1,.29,1.71c-.06,1.88.09,3.77-.72,5.63s-1.55,3.41-2.2,5.14c-.48,1.28-.77,2.59-1.12,3.89a20.23,20.23,0,0,0-.81,3.42c-.06.74-.59,1.62,1,2.2.18.06.37.23.33.32-.39.89.28,1.8-.69,2.71s-.82,2,.15,2.93a.93.93,0,0,1,.35.81,3.74,3.74,0,0,1-.79,1.66,12.07,12.07,0,0,1-3.77,3.27,11.83,11.83,0,0,1-5.1,1c-3.35.05-5.52-1-7.85-1.95a30,30,0,0,1-5-2.37c-1.22-.79-1.54-1.63-1.24-2.59a8.34,8.34,0,0,0,.19-.94,4,4,0,0,0-.59-.11c-2.26.08-3.08-.33-3.19-1.52-.14-1.59-.38-3.18-.48-4.77-.06-1,.11-2,.09-2.95s-.21-1.7-.23-2.55a42.86,42.86,0,0,1,.15-6.61,5,5,0,0,0-.36-3c-.35-.67-.05-1.2,0-1.8a11.89,11.89,0,0,0,0-1.91c0-1.18,0-2.37,0-3.55,0-.61.06-1.14,1.25-1.45s1.71-.72,1.46-1.53,1-1.43,2.36-1.84a6.16,6.16,0,0,1,4,.18A4.27,4.27,0,0,1,173,247.86Zm5,35.81,1.8.5.38-.15c-.13-.26-.11-.63-.43-.76A1.51,1.51,0,0,0,178,283.67Z" fill="#7d5e21"/><path d="M245.51,249.14l3.65-1c.93.49,2.37.5,2.93,1.16a.81.81,0,0,0,.47.11c1.07-.29,1.84.18,2.75.28a9,9,0,0,0,2,.11,3.94,3.94,0,0,1,3,.57,6,6,0,0,0,2.62.82c1.24.19,1.41.36,1.43,1,0,1.37.13,2.74.16,4.11a8.18,8.18,0,0,1-.07,2.57,5.74,5.74,0,0,1-2,3.39c-.55.42-1.19.8-1.31,1.35,0,.16-.51.34-.86.42-1.89.48-2.84,1.19-2.74,2.35,0,.5-.47,1.05-1,1.5s-.56.62-.47,1c.15.59-.41,1-1.2,1.38a14.88,14.88,0,0,1-5.06,1.63,19.08,19.08,0,0,1-6.29-.08,26.09,26.09,0,0,1-9.82-4A30.55,30.55,0,0,1,230,265c-.77-.7-.83-1,.2-1.51.65-.35.92-.72.89-1.2a42.71,42.71,0,0,1-.15-5,24.06,24.06,0,0,1,.75-3.9,5.45,5.45,0,0,1,.59-1.49c.54-.95,2.18-1.23,3.69-1.57a4.28,4.28,0,0,0,.82-.15C239.26,248.76,242.34,248.86,245.51,249.14Zm-1.21,17.24-1.36-.31-1.75.82,1.67.76Z" fill="#7d5e21"/><path d="M131.89,248.48c-.26-1.37.27-1.89,2.14-2.33a5.82,5.82,0,0,1,4.65.6c1.15-.23,2.27-.49,3.44-.67a2.22,2.22,0,0,1,2,.43c.73.68,2.13,1.16,2.18,2.12,1.66-.24,3.22-.43,4.76-.69a3.2,3.2,0,0,1,2,.21c1.52.67,2.66,1.4,2.06,2.53a.45.45,0,0,0,0,.38,8.83,8.83,0,0,1,.39,4.39c-.18,2.25-.24,4.5-.53,6.74a20.63,20.63,0,0,1-1.09,3.88,5.62,5.62,0,0,1-.94,1.25s0,0,0,0c2.47.88,2.55,1.25.14,2.16a14.53,14.53,0,0,1-6.73,1.18c-1.3-.11-2.71.07-4-.1a30.76,30.76,0,0,1-6.6-1.58c-.63-.23-1.37-.39-2-.64-1.44-.57-2.81-1.2-4.27-1.75-1.82-.69-2.13-1.68-2.1-2.72a14,14,0,0,0-.78-4.86,21,21,0,0,1-.7-2.75c-.12-.6.29-1.08,1.21-1.52,1.3-.62,1.53-.74.78-1.92a1.34,1.34,0,0,1-.13-.94c.12-.78.34-1.57.45-2.35.06-.42.46-.65,1.17-.76Zm17.85,19.07.12.18.77-.16-.1-.13Z" fill="#7d5e21"/><path d="M109.81,272.57c-.73,0-1.47,0-2.2,0a8.54,8.54,0,0,1-5.86-2.35,4.81,4.81,0,0,1-1.9-3.57c0-.25-.29-.49-.37-.74s-.18-.81-.3-1.21a2.3,2.3,0,0,0-.29-.53c-.11-.18-.43-.38-.34-.52,1.05-1.57-.18-3.09-.37-4.62-.11-.85-.62-1.67-.3-2.55.13-.35-.27-.74-.33-1.12a6.27,6.27,0,0,1-.21-2.48,3.59,3.59,0,0,1,2.76-2.66,4,4,0,0,0,1.72-1.05c1.19-1.38,1.81-1.66,4.91-1.56a6,6,0,0,0,1.89-.19,5.76,5.76,0,0,1,2.8-.24,3.72,3.72,0,0,0,2.37-.27,3.1,3.1,0,0,1,2.2-.15c1.33.3,3,.38,3.67,1.15,1.08,1.2,3,2.09,4.13,3.25a1.84,1.84,0,0,1,.47,1.3A9,9,0,0,0,125,256a5.49,5.49,0,0,1,0,2.73c-.19,2.07-.45,4.14-.65,6.22,0,.33.22.67.16,1-.17,1-1.11,1.9-2.43,2.67a27.17,27.17,0,0,1-2.68,1.66,45.61,45.61,0,0,1-4.47,1.64A12.73,12.73,0,0,1,109.81,272.57Zm5.39-4.15-.23-.21a3.44,3.44,0,0,0-2,.21,1.9,1.9,0,0,1-.94.21c-1.51-.29-2.53.37-4.16.4a5.15,5.15,0,0,0,3.29.74A38.79,38.79,0,0,0,115.21,268.42Z" fill="#7d5e21"/><path d="M210.19,249.55c1-1.37,3.9-1.74,5.75-.73a7.77,7.77,0,0,0,3.34.85c1.45.09,2.86.23,4.35.19,2.36,0,3.73.94,3.25,2.15a2.53,2.53,0,0,0,.13,2.55.65.65,0,0,1,.14.47,15.43,15.43,0,0,0,.42,6.63,5.9,5.9,0,0,1,.31,2.07c-.05.85-1.31,1.32-2.47,1.79a13.17,13.17,0,0,0-1.54-.32,1.65,1.65,0,0,0-.85.22c-.09.06.08.3.26.39a9.43,9.43,0,0,0,1.15.39,8,8,0,0,0-.62.71,1.11,1.11,0,0,0-.27.63c.1,1.23-.29,1.55-2.49,1.84a17,17,0,0,1-5,.39,11.2,11.2,0,0,0-1.75.22c-4.35.23-7.92-.53-10.58-2.36a17.57,17.57,0,0,0-3.51-2.19,1.51,1.51,0,0,1-1.12-1.44,37.25,37.25,0,0,0-.22-8.54c-.19-1.29-.27-2.59-.44-3.88-.06-.45-.72-.83-.29-1.37a4.13,4.13,0,0,1,3.45-1.32c.85,0,1.69.12,2.53.18a5,5,0,0,0,.89.08A16.93,16.93,0,0,1,210.19,249.55Zm1.06,16.8-.1.2a4,4,0,0,0,3.11.08Z" fill="#7d5e21"/><path d="M79.11,269.63A15.43,15.43,0,0,1,72,267.79c-.43-.19-.77-.69-.61-.95.58-.92-.46-1.68-.7-2.51a14.05,14.05,0,0,0-.9-1.94c-.32-.68-.68-1.36-.94-2-.5-1.34-.9-2.7-1.4-4-.18-.5-.53-1-.78-1.47-.12-.25-.31-.51-.23-.75.26-.87-.44-1.63-.93-2.41-.89-1.4.4-2.53,3.19-2.61a4.54,4.54,0,0,0,2.24-.52,8.61,8.61,0,0,1,3.84-1,8.82,8.82,0,0,0,2-.35,5.81,5.81,0,0,1,5.06.38,2.72,2.72,0,0,0,2.34.33,6.27,6.27,0,0,1,4.53.88,3.25,3.25,0,0,0,.94.38,3.45,3.45,0,0,0,.54,0c2.25.21,3.49.86,3.69,2.06.33,2,.46,4,.82,6a11.62,11.62,0,0,1-.36,4.77,30.53,30.53,0,0,0-.3,3.33,1,1,0,0,1-.53.66,16.67,16.67,0,0,1-4.36,1.73,56,56,0,0,1-7.58,1.61C80.78,269.49,79.95,269.56,79.11,269.63Zm3.42-3-.16-.22-.91.21a.58.58,0,0,0,.12.15Z" fill="#7d5e21"/><path d="M297.4,266.76l.81-.66a1.73,1.73,0,0,0-.46-.2c-1-.1-1.42-.47-1.57-.94-.24-.77-.44-1.55-.65-2.32,0-.09-.06-.2,0-.28.85-.87.18-1.75.2-2.63a25.67,25.67,0,0,1,.55-4.6,7.8,7.8,0,0,1,1.13-2.5,5.68,5.68,0,0,1,1.5-1.3,3.46,3.46,0,0,1,2.47-.65,2,2,0,0,0,1.49-.44,15.17,15.17,0,0,1,2.18-1.27,6.59,6.59,0,0,1,4.57.19c.56.25,1.15.48,1.75.7.34.12.73.21,1,.3,1.72-.58,3.33-1.15,5-1.66,2.57-.79,5.43,0,5.38,1.47-.1,3.25-.28,6.49-.59,9.74a42.83,42.83,0,0,0-.57,6.73c.1,1.54-2.61,2.59-5.35,2.09a2.61,2.61,0,0,0-1.64.23,19.32,19.32,0,0,1-6.15,1.33,17.88,17.88,0,0,1-4.41-.46,23.5,23.5,0,0,1-3.6-.91A6,6,0,0,1,297.4,266.76Zm13.69-2a2.1,2.1,0,0,1-.76,2.32,10,10,0,0,0,3.5-.13c1.1-.21,1.21-.34.81-1.12C312.65,266.23,312.54,265,311.1,264.72Z" fill="#7d5e21"/><path d="M280.15,251.12c.43-1.34,2.17-1.87,4.19-1.93a3.39,3.39,0,0,1,3.28,1.49c.76-.06,1.47-.11,2.16-.19,2.21-.24,3.16-.06,3.85,1.4a4.6,4.6,0,0,1,.31,2c0,1.46-.13,2.92-.13,4.38s.13,2.72.13,4.09a1,1,0,0,1-.51.77,5.54,5.54,0,0,1-4.48.75c-.28,1.4-1.66,2.34-3.92,2.88-.54,1.79-4.17,3.28-8,3.3a17.53,17.53,0,0,1-7.24-1.34c-.75-.33-1.57-.61-2.35-.92-1.25-.49-1.45-1.06-.55-1.7.47-.34.65-.67.43-1.08a8.22,8.22,0,0,1-.67-4.35,33.07,33.07,0,0,1,.81-5.59,3,3,0,0,1,1-1.42,2.06,2.06,0,0,0,.83-2.19c-.19-.65.21-1.15,1.23-1.59a5.65,5.65,0,0,1,2.53-.42A17.9,17.9,0,0,1,280.15,251.12Z" fill="#7d5e21"/><path d="M54.13,248.78a9.5,9.5,0,0,1,2.37.09,3,3,0,0,0,.89,0c1.92-.24,3.41.22,3.72,1.23.47,1.51,1.47,3,2.11,4.43.49,1.14,1.31,2.26,1.18,3.48-.08.74.53,1.5.47,2.25A22.54,22.54,0,0,1,64,264.6c-.14.47-.83.92-1.39,1.33s-.79.67-.62,1.14c.23.66-.66,1.23-1.92,1.4a23.53,23.53,0,0,1-11-1,10.05,10.05,0,0,1-4.39-2.77,4.83,4.83,0,0,0-.51-.51c-.64-.55-.78-1.07.3-1.54.79-.34.52-.64.13-1.08a12.93,12.93,0,0,1-1.86-2.76c-.15-.29.17-.71.5-1,.76-.65.48-1.28.21-1.94a8.46,8.46,0,0,1-1-3.16A3.47,3.47,0,0,0,42,251.1c-.75-1.46.6-2.86,3.4-3a4.58,4.58,0,0,0,1.46-.53,4.63,4.63,0,0,1,4.44.06C52.16,248,53.17,248.39,54.13,248.78Z" fill="#7d5e21"/><path d="M185.23,222.1c-.09,0-.16.09-.33.19a2.19,2.19,0,0,0,.34.08c.19,0,.34-.12.27-.18A.42.42,0,0,0,185.23,222.1Z" fill="none"/><path d="M180.16,215.27a3.87,3.87,0,0,0,.13.4s.1,0,.16,0C180.42,215.42,180.42,215.42,180.16,215.27Z" fill="none"/><path d="M102.07,174.1c-4.08,0-4.89,1.17-4.89,4.08,0,1.75.35,4.08.35,5.83,0,2.8,2.57,2.8,4.43,2.8,2.68,0,7.34-2.8,7.34-5.13a20.68,20.68,0,0,0-.35-2.33C108.94,175.85,105,174.1,102.07,174.1Z" fill="none"/><path d="M182.74,222.59a.34.34,0,0,0,.45.08,1.09,1.09,0,0,0,.21-.18A.47.47,0,0,0,182.74,222.59Z" fill="none"/><path d="M182.47,205.22c-1.51,0-1.89,1.13-2.19,3.31a.72.72,0,0,1,.91.75,2.56,2.56,0,0,0,0,.59,10,10,0,0,1,.11,1.51,2.66,2.66,0,0,0,0,.33c.23,1.19.46,2.37.68,3.56.06.3.08.61.13.91q.25,1.46.51,2.92s.06,0,.11.08a.24.24,0,0,0,.1-.27c0-.2-.08-.39-.1-.58-.09-.9-.18-1.79-.25-2.69a2.88,2.88,0,0,0-.14-1.09c0-.09,0-.22,0-.33,0-.42-.06-.83-.09-1.24,0-.59-.11-1.18-.14-1.77,0-.77,0-1.54-.05-2.31a.43.43,0,0,1,.32-.5,6.12,6.12,0,0,1,.71-.15.34.34,0,0,0,.3-.3c0-.26.05-.53.11-.78a.85.85,0,0,1,1.06-.62C184.3,205.48,183.78,205.22,182.47,205.22Z" fill="none"/><path d="M185.83,222.12c0,.05,0,.12.06.12a.71.71,0,0,0,.16,0s0-.13-.07-.13S185.88,222.1,185.83,222.12Z" fill="none"/><path d="M61.78,129.84c5,0,22,.37,25.42.37s18-.37,22.12-.37c7.68,0,7.77-5.49,7.77-12.8,0-1.83.46-3.2.46-4.57,0-1.65-1.28-3.75-3.47-3.57-3.66.27-9.6.09-11.89,0-3.2-.09-8.41.27-9.78.27-.91,0-2.19-.82-2.19-1.74s.37-2.29,1.74-2.29c3.66,0,5.48-.55,15.54-.55,6.86,0,8.87-1.19,8.87-5.12,0-1.55.18-4.48.18-5.58s-.37-2.38-.37-3.47c0-3.29-3.11-3.57-5.3-3.57-1.19,0-7.31.27-8.41.27s-7.59-.09-9.14-.09-2.74-.64-2.74-1.83a1.86,1.86,0,0,1,1.83-2.1c1.1,0,8.23-.18,9.6-.18s2.29-.37,12.34-.37c1.37,0,2.93-1.65,2.93-3.47,0-1.37-.55-3.2-.55-4.57,0-10.51-5.12-13.26-9.69-13.26-13.26,0-21-.37-26.51-.37-4.11,0-16.46.37-20.11.37s-7.13,4.57-7.13,11.43-.73,17.19-.73,22.22.46,22.49.46,26.7A8.44,8.44,0,0,0,61.78,129.84Zm-6.84-19a1.32,1.32,0,0,1,1.47-.25,1,1,0,0,1,.34,1,1,1,0,0,1-.93.49,1.43,1.43,0,0,1-.45,0,1.61,1.61,0,0,1-.54-.36A.75.75,0,0,1,54.94,110.88ZM56,101.13a.35.35,0,0,1-.16.49.4.4,0,0,1-.4-.39c0-.09.14-.17.22-.26S55.94,101,56,101.13Zm-.15-5.55.12,0-.08.12Zm0,9.88c.33,0,.63.23.62.48a.66.66,0,0,1-.7.66.67.67,0,0,1-.53-.62C55.24,105.72,55.53,105.47,55.85,105.46Zm.34-19.08a.38.38,0,0,1-.58,0,6.71,6.71,0,0,1-.38-.58.72.72,0,0,1,.46-.85c.27-.08.73,0,.81.22a.66.66,0,0,1,.07.43A4,4,0,0,1,56.19,86.39Zm-.3-6c-.08.1-.25.14-.37.21a1,1,0,0,1-.66-1,.31.31,0,0,1,.15-.16.63.63,0,0,1,.8.19A.57.57,0,0,1,55.9,80.34Zm.1,46.39a.79.79,0,0,1-.54.21c-.24,0-.34-.42-.2-.68a.25.25,0,0,1,.36-.13C55.9,126.21,56.14,126.59,56,126.74ZM56,122a.4.4,0,0,1-.18.13c-.2.11-.42.25-.62.06a2.25,2.25,0,0,1-.32-.51,3.83,3.83,0,0,1,.18-.47.55.55,0,0,1,.54-.33.61.61,0,0,1,.62.53A1.52,1.52,0,0,1,56,122Zm1.66-40.77a.47.47,0,0,1,.37-.19.71.71,0,0,1,.6.81c0,.06-.07.14-.12.17a.53.53,0,0,1-.62,0A.59.59,0,0,1,57.71,81.25Zm1.63,45.56a1,1,0,0,1,.08.43,1.13,1.13,0,0,1-.58.92,1.29,1.29,0,0,1-.43.08.86.86,0,0,1-.55-.67,1,1,0,0,1,.68-1A.73.73,0,0,1,59.34,126.81ZM58,70.35a5,5,0,0,1,.82.26.79.79,0,0,1,.41.72c0,.07,0,.14-.05.21a.51.51,0,0,1-.66.39,2.13,2.13,0,0,1-1-.87.8.8,0,0,1-.07-.41C57.47,70.47,57.74,70.3,58,70.35Zm-1.06,46.07a2.26,2.26,0,0,1-1,1.15.52.52,0,0,1-.6-.1,4,4,0,0,1-.3-.59c-.23-.62.18-1.21,1-1.24.12,0,.4.12.66.23A.47.47,0,0,1,56.91,116.42ZM55.79,70.24l.25.24c-.1.07-.2.2-.29.19s-.21-.14-.31-.22Zm-.29,2.93a.48.48,0,0,1,.36-.21,3.06,3.06,0,0,1,.86.23c.09,0,.11.26.16.38a1.08,1.08,0,0,1-.84.68.64.64,0,0,1-.42-.06A.81.81,0,0,1,55.5,73.17Zm-.16,1.5a3.15,3.15,0,0,1,.42.13.55.55,0,0,1,.26.74.67.67,0,0,1-.68.42.76.76,0,0,1-.59-.58A.57.57,0,0,1,55.33,74.68Z" fill="#eeb041"/><path d="M151.37,115.22c-.37-2.29,0-5.94-.18-7.77-.27-2.29-.73-4.11-3-4.11-1.37,0-1.83.46-2.74.46s-.91-.91-.91-2.29c0-2.19.91-9.42.91-11.43,0-5.49.91-15.36.91-21.48,0-4.39-2.74-7.41-5.49-7.31-4.57.18-11.52-.18-14.63,0-3.66.18-5.3,2.47-5.12,8.69.18,5.94.18,16.46-.18,20.3s.18,25.42.09,30.44,2,9,6.12,9.05,7,.46,10.06.09c3.2-.37,7.5.46,10.06,0s3.93-1.46,3.93-3.66S151.82,118,151.37,115.22Z" fill="#eeb041"/><path d="M158.41,130a50.86,50.86,0,0,0,6.4-.18c2.19-.27,4.11.55,8.59.09,3.2-.37,4.94-.91,5.12-4s0-31.27-.46-37.21-.37-18.28-.64-21.94c-.27-3.29-.27-5.21-4.39-5.49a31.51,31.51,0,0,0-7.77,0c-1.74.37-3.66-.18-5.94,0-4.57.37-5.85,1.28-5.76,6.4.09,6,.09,19.2-.09,25.23-.18,5.85,0,23.59.18,28.25C153.83,126.19,154.29,129.75,158.41,130Z" fill="#eeb041"/><path d="M182,102.42c-.55,2.83-1.37,13.26-1.83,17.83-.27,2.74-.46,4.57-.46,6.4,0,2.29,1.65,3.47,4.11,3.29,2.74-.18,10.51-.27,15.08-.09,3.66.18,5.21-2.1,5.21-3.75,0-4.75.37-9.33.37-14.08,0-2-.09-3.29,1.28-3.29s1.46.46,1.46,2.38.82,8.87.82,14.63a3.87,3.87,0,0,0,3.66,4.21c2.74.27,11-.27,14.17-.09,3.66.18,5-.91,5-3.66,0-2.29-.37-2.74-.64-6.86-.27-4.57-.09-10.42-.73-16.36a6.16,6.16,0,0,0-2.19-4.21c-1.83-1.83-1.83-2.29-1.83-4.11,0-1.37,0-1.83,1.37-3.66a11.42,11.42,0,0,0,2.19-5.49c.27-1.46.46-6.4.91-11,.37-3.66.91-6.58.91-8.69,0-2.74-.91-4.75-5.49-4.57-3.66.18-9.14.27-14.17,0-1.83-.09-3.66,2.38-3.66,4.21,0,4-.37,9-.37,12.25,0,2.29.37,3.57-1,3.57s-1.37-.37-1.55-3.11c-.27-4.21-.73-7.59-.73-12.34,0-1.83-1.83-5-4.57-4.75a136.44,136.44,0,0,1-15.08.18c-2.29-.09-4.57.91-4.57,4.57,0,2.29.64,5.49.91,8.23.46,4.57,1,10.42,1.37,12.34A8.25,8.25,0,0,0,184.28,91a4.17,4.17,0,0,1,1.37,3.66,4.17,4.17,0,0,1-1.37,3.66A6.15,6.15,0,0,0,182,102.42Z" fill="#eeb041"/><path d="M237.48,130a50.87,50.87,0,0,0,6.4-.18c2.19-.27,4.11.55,8.59.09,3.2-.37,4.94-.91,5.12-4s0-31.27-.46-37.21-.37-18.28-.64-21.94c-.27-3.29-.27-5.21-4.39-5.49a31.5,31.5,0,0,0-7.77,0c-1.74.37-3.66-.18-5.94,0-4.57.37-5.85,1.28-5.76,6.4.09,6,.09,19.2-.09,25.23-.18,5.85,0,23.59.18,28.25C232.91,126.19,233.37,129.75,237.48,130Z" fill="#eeb041"/><path d="M260,125.73a4.49,4.49,0,0,0,4.75,4.21,128.14,128.14,0,0,1,14.45.27c2,.09,3.56-1.65,3.56-3.93s-.64-5.94-.64-11.52c0-1.46-.46-1.74.46-2.1.46-.18.91.73,1.37,2.1,2.74,8.23,2.56,9.14,2.56,11.89,0,1.55,1.55,3.11,3.84,3.2,4.21.18,12.34-.09,14.63.09a3.11,3.11,0,0,0,3.66-3.29c0-2.29-.55-4.21-.91-7.31-.06-.57-.14-1.12-.23-1.66a.4.4,0,0,1,0,.18,2.33,2.33,0,0,1-.92.94c-.2.11-.43.18-.6,0a1.06,1.06,0,0,1-.29-.56,1.26,1.26,0,0,1,1.32-1.19.63.63,0,0,1,.48.45c-.59-3.32-1.63-6.08-2-9.57a7.4,7.4,0,0,0-.66-2.41l-.15.11a5.66,5.66,0,0,0-2.15,2.25,3.58,3.58,0,0,1-.78.82.74.74,0,0,1-.83.12.81.81,0,0,1-.37-.77,3,3,0,0,1,.19-.87,1.06,1.06,0,0,1,1-.72c.15,0,.3,0,.45,0,.47,0,.77-.21.85-.57s.16-.89.28-1.33a1.33,1.33,0,0,1,.4-.63l-.12-.13c-1.37-1.37-1.37-1.83-1.37-3.2s0-1.37,2.29-4.11a11.08,11.08,0,0,0,2.65-8.69c-.13-1.22-.3-4.08-.44-7.08a.36.36,0,0,1-.27.11c-.37,0-.75-.11-1.12-.19a.48.48,0,0,1-.33-.53.78.78,0,0,1,.24-.36,1.24,1.24,0,0,1,1.43,0c-.12-3-.21-6-.16-7.42a17,17,0,0,0-.07-2,.71.71,0,0,1-.52.09.6.6,0,0,1-.44-.68.72.72,0,0,1,.79-.7,12,12,0,0,0-.68-2.4l-.1.07A5.66,5.66,0,0,0,303.33,69a3.58,3.58,0,0,1-.78.82.74.74,0,0,1-.83.12.81.81,0,0,1-.37-.77,3,3,0,0,1,.19-.87,1.06,1.06,0,0,1,1-.72c.15,0,.3,0,.45,0,.47,0,.77-.21.85-.57s.16-.89.28-1.33a1.32,1.32,0,0,1,.51-.71,8.63,8.63,0,0,0-7-3.88c-7-.37-8.87.27-16-.18-1.83,0-9.78.37-13.71.37-3.66,0-7.13,2.83-7.13,8s-.64,19.93-.55,23.31.18,25,.09,26.79C260.24,121,260,124.08,260,125.73ZM303.64,121a1.3,1.3,0,0,1,.44-1,1.24,1.24,0,0,1,.6-.26c.23,0,.52.32.56.63,0,.07,0,.15,0,.23a1,1,0,0,1-.67,1.07A.7.7,0,0,1,303.64,121Zm2.87,2a.23.23,0,0,1,.37.15.89.89,0,0,1-.08.41.36.36,0,0,1-.14.17,3.14,3.14,0,0,1-.59.35,2.12,2.12,0,0,0-1.24,1.25c0,.1-.25.13-.38.19a.75.75,0,0,1-.16-.16c0-.06-.06-.16,0-.2.16-.25.33-.49.51-.73A5.59,5.59,0,0,1,306.52,122.93Zm-2.34-13.72a.81.81,0,0,1,.62.11,1.17,1.17,0,0,1,.48.94,1,1,0,0,1-1.46.88c-.42-.19-.69-.53-.63-.82A1.44,1.44,0,0,1,304.18,109.21Zm0,5.39a.6.6,0,0,1,.63.51,1.07,1.07,0,0,1-1.1,1.14c-.25,0-.64-.4-.58-.59A1.44,1.44,0,0,1,304.22,114.6Zm.84-44.25a.81.81,0,0,1,.62.11,1.17,1.17,0,0,1,.48.94,1,1,0,0,1-1.46.88c-.42-.19-.69-.53-.63-.82A1.44,1.44,0,0,1,305.06,70.36Zm0,5.39a.6.6,0,0,1,.63.51,1.07,1.07,0,0,1-1.1,1.14c-.25,0-.64-.4-.58-.59A1.44,1.44,0,0,1,305.1,75.75Zm-2.87,12.57a12.71,12.71,0,0,1,.61-1.2.76.76,0,0,1,1-.32,1.07,1.07,0,0,1,.62,1.1A1.4,1.4,0,0,1,303.1,89c-.14,0-.36-.08-.58-.14S302.17,88.46,302.24,88.32Zm-21-4.28c.18-1.37.37-1.92,2.1-2,1.92-.09,2.1.91,2.1,1.83,0,2.56.55,4-.18,4.94-1.37,1.74-1.83,2.65-2.74,2.65-1.1,0-1.28-.37-1.19-2.29C281.45,87.42,281.09,85.32,281.27,84Z" fill="#eeb041"/><path d="M148.57,161.28c.23-8.74-2.8-12.82-10.37-18.06s-12.24-8.16-21.56-8.16c-4.08,0-10.49-.58-15.73-.58-5.83,0-30.3.93-36.13.58-7-.35-10.14,4.66-10.26,12.94,0,3.09-.18,6.56-.33,10.06a.88.88,0,0,1,.28.52.46.46,0,0,1-.16.37l-.16.08c-.06,1.47-.12,2.93-.18,4.37a2.65,2.65,0,0,1,.43.49l-.46.34c-.06,1.61-.1,3.18-.13,4.68a1.19,1.19,0,0,1,.21.23c.08.12,0,.26-.19.25h0c0,1.78,0,3.46,0,5,0,1,.07,2.45.12,4.14.33,0,.65,0,1,.09.1,0,.22.19.24.31a.44.44,0,0,1-.15.37c-.33.16-.67.31-1,.44,0,1.06.06,2.21.09,3.41a2.3,2.3,0,0,0,.84-1.27,3.13,3.13,0,0,1,.29-.61,1.21,1.21,0,0,1,1.58-.4c.12.06.19.22.28.34s0,.33,0,.43a2.18,2.18,0,0,1-.61.65,3.11,3.11,0,0,0-1.45,1.66,1.8,1.8,0,0,1-.85,1c.24,10.34.5,23.91.42,26.92a19.69,19.69,0,0,0,.06,2,5.19,5.19,0,0,0,.8-1.14.48.48,0,0,1,.4-.15c.11,0,.21.16.31.25s0,.36,0,.43a7.1,7.1,0,0,0-1.33,1.65,9.9,9.9,0,0,0,.93,3,.8.8,0,0,1,.24-.71.93.93,0,0,1,.83-.24c.21,0,.39.4.4.73a.8.8,0,0,1-.34.78.93.93,0,0,1-.95-.21c1.38,2.38,4,3.9,8.36,4.3,3.85.35,9.32.47,14.92.47s11.3-.23,15.38-.35c8.74-.35,16.9.23,21,.23,10.49,0,14.8-2.91,23.89-8,8.16-4.66,9.67-9.79,10-16.78C149.85,188.09,148.1,179.93,148.57,161.28Zm-92.23,36.1c0-.05-.12-.1-.12-.15s.09-.09.14-.13.12.11.12.15S56.39,197.34,56.34,197.38Zm0-5.09c-.16,0-.21-.19-.14-.36s.3-.32.49-.18.12.24.21.43A1.82,1.82,0,0,1,56.36,192.3Zm4.27-52a.66.66,0,0,1,.73-.4.53.53,0,0,1,.43.47.87.87,0,0,1-.83.87.82.82,0,0,1-.2-.11A.69.69,0,0,1,60.63,140.3Zm.75,21c.18,0,.23.2.17.37s-.16.25-.32.19-.41-.35-.26-.47A.54.54,0,0,1,61.38,161.34ZM61.25,146s.08-.1.13-.12.08,0,.13.07l-.15.19S61.25,146,61.25,146Zm.1,25.33c.11.06.17.22.25.34a.35.35,0,0,1-.49.3.53.53,0,0,1-.26-.32C60.82,171.44,61.18,171.21,61.35,171.29Zm.42,10.64c.05,0,.09.1.13.15s-.18.32-.41.26a.23.23,0,0,1-.14-.15C61.33,182,61.57,181.89,61.77,181.94Zm-3.46-44.07c.09-.16.3-.25.51-.41.17.18.35.3.42.47s-.14.43-.37.44S58.19,138.1,58.32,137.87Zm.89,5.65c-.1.07-.19.21-.29.2s-.38-.29-.25-.44a.43.43,0,0,1,.37-.11C59.13,143.21,59.16,143.39,59.21,143.51Zm-.58,4.37a.9.9,0,0,1,.59.23c.2.17.12.42,0,.62a.85.85,0,0,1-.83.42c-.1-.11-.32-.25-.35-.43A.75.75,0,0,1,58.63,147.88Zm-.83,15.83a4.07,4.07,0,0,1,.27-.6.82.82,0,0,1,1-.33c.31.13.36.42.41.71a3.47,3.47,0,0,1,0,.36c0,.15-.12.43-.21.71a.52.52,0,0,1-.54.3A.85.85,0,0,1,57.8,163.71Zm-2.23-2.54a1.09,1.09,0,0,1,1.58.18,1.33,1.33,0,0,1,.1.2,1.36,1.36,0,0,1-.9,1.18.59.59,0,0,1-.43-.05,1.13,1.13,0,0,1-.58-.91A.92.92,0,0,1,55.57,161.17Zm1.29,11.3a2,2,0,0,1-.52.29,1.82,1.82,0,0,1-.44-.24,1.14,1.14,0,0,1-.14-1.44c.21-.33.7-.54,1-.39a.91.91,0,0,1,.43.74A1.24,1.24,0,0,1,56.86,172.48Zm1.71,43.09.08-.13,0,.14Zm-.06-20.39c-.38,0-.71-.45-.66-1a.77.77,0,0,1,.75-.66.73.73,0,0,1,.69.71A.88.88,0,0,1,58.51,195.18Zm1.2-19.88a.55.55,0,0,1-.5.37c-.22,0-.44-.09-.67-.1a.91.91,0,0,0-1,1.16c.08.48,0,1,.55,1.34h.11l0,.05a6.83,6.83,0,0,1,.85.7.82.82,0,0,1,.16.61.93.93,0,0,1-.87.56.5.5,0,0,1-.33-.24,1.53,1.53,0,0,1,.19-1.64h0l-.05,0a3.37,3.37,0,0,1-2.29-.35,1.1,1.1,0,0,1-.08-1.74,2.46,2.46,0,0,1,1-.38.71.71,0,0,0,.58-.61,2.93,2.93,0,0,1,.67-1.64.77.77,0,0,1,1-.05A1.8,1.8,0,0,1,59.71,175.3ZM60.36,187c.06-.19.18-.23.36-.15s.47.13.43.42c0,.07-.25.12-.39.15a.45.45,0,0,1-.22-.06A.26.26,0,0,1,60.36,187Zm1,21.26A2.16,2.16,0,0,1,61,208a.54.54,0,0,1-.26-.56.82.82,0,0,1,.59-.59.63.63,0,0,1,.67.44,3.11,3.11,0,0,1,.09.43A.5.5,0,0,1,61.36,208.24Zm1-43.18a.27.27,0,0,1-.37.17.23.23,0,0,1-.13-.37c.08-.1.25-.13.37-.19A.26.26,0,0,1,62.38,165.06Zm.82,18.88-.53-.29c.1-.17.15-.33.25-.38a.31.31,0,0,1,.45.29C63.37,183.69,63.26,183.81,63.2,183.94Zm1,10.45c-.12.07-.19,0-.17-.19s.08-.1.12-.15l.1.17C64.21,194.28,64.21,194.37,64.17,194.39ZM102,186.8c-1.86,0-4.43,0-4.43-2.8,0-1.75-.35-4.08-.35-5.83,0-2.91.82-4.08,4.89-4.08,2.91,0,6.88,1.75,6.88,5.24a20.68,20.68,0,0,1,.35,2.33C109.29,184,104.63,186.8,102,186.8Z" fill="#eeb041"/><path d="M188.3,209.76a1.39,1.39,0,0,0-.08,1.08A.82.82,0,0,0,188.3,209.76Z" fill="#eeb041"/><path d="M188.07,212.61l.06-.06s0,0,0,0,0,0,0,0A.17.17,0,0,0,188.07,212.61Z" fill="#eeb041"/><path d="M188,211.77c0,.09.06.16.22.1l0-.64A.5.5,0,0,0,188,211.77Z" fill="#eeb041"/><path d="M191,205.63a9.37,9.37,0,0,1,0-1c0-.35.06-.7.07-1,0-.92,0-1.84.06-2.77a12.63,12.63,0,0,1,.08-1.44,7.34,7.34,0,0,0,0-1.5c0-.48,0-1,0-1.45,0-.13,0-.26,0-.4q-.14-1.44-.28-2.89c0-.1,0-.22-.19-.22l-.09.16a.82.82,0,0,1-1.37.14,1.32,1.32,0,0,1-.28-.51c-.14-.44-.33-.86-.5-1.29,0-.07-.07-.17-.21-.11.05.36.1.73.15,1.09s-.12.75-.41.8a1.88,1.88,0,0,1-.78,0,.91.91,0,0,1-.43-.38,1,1,0,0,0-.68-.47.79.79,0,0,1-.72-.74.88.88,0,0,0-.63-.83.81.81,0,0,1-.56-.6c0-.33-.18-.63-.24-.95-.1-.59-.19-1.17-.27-1.76s-.2-1.43-.3-2.15l-.1,0a2,2,0,0,0-.09.43,10.13,10.13,0,0,0,.06,1.71,11,11,0,0,1,.16,1.57,5.34,5.34,0,0,0,.29,1.62.46.46,0,0,1,0,.31.63.63,0,0,1-.78.43.87.87,0,0,1-.66-.48,1.35,1.35,0,0,0-.21-.27,1.06,1.06,0,0,0-.09.68.75.75,0,0,1-.56.8,2,2,0,0,1-.85-.8c0-.46-.21-.89-.18-1.37,0-.64,0-1.27,0-1.91,0-.86,0-1.71,0-2.57,0-.64,0-1.27,0-1.91s-.08-1.41-.13-2.11a.87.87,0,0,0-.1-.24.27.27,0,0,0-.2.27c0,.42,0,.83,0,1.25a14.71,14.71,0,0,0-.07,2.17c0,.22,0,.44,0,.66a2.38,2.38,0,0,1,0,.32c0,.41-.12.83-.13,1.24,0,.75,0,1.49,0,2.24a11.91,11.91,0,0,0,.2,3,4.75,4.75,0,0,1,.06.92.47.47,0,0,1-.25.44.42.42,0,0,1-.49-.08l-.15-.13a1.71,1.71,0,0,0-.93-.59.24.24,0,0,1-.16-.11c-.16-.31-.45-.55-.49-.92s-.09-.78-.12-1.18c0-.2,0-.4,0-.59s-.08-.13-.15-.23a1.46,1.46,0,0,0-.24.87,6.07,6.07,0,0,1,0,.66.89.89,0,0,1-.37.67.39.39,0,0,1-.49,0,1.24,1.24,0,0,1-.6-.9,6.51,6.51,0,0,1,0-1.69c.05-.28.09-.56.13-.84a1.08,1.08,0,0,0-.16-.85c-.05,0-.12.07-.15.12a24.49,24.49,0,0,0-1.45,3.44,6,6,0,0,1-.26.74.7.7,0,0,1-.21.32.65.65,0,0,0-.24.76c.05.28.13.56.18.84.14.87.25,1.74.39,2.6.12.72.26,1.43.38,2.14s.2,1.26.3,1.89c.07.39.15.78.22,1.17.15.82.28,1.65.46,2.46.21,1,.45,2,.69,3a2.63,2.63,0,0,0,.31.82,7.26,7.26,0,0,1,1,.2.67.67,0,0,0,.67-.08,1.12,1.12,0,0,1,1.07-.12.43.43,0,0,1,.33.44c0,.35,0,.71,0,1.06a6,6,0,0,0,.15,1.1,3,3,0,0,1,.15.84c0,.13,0,.27.2.35a2.74,2.74,0,0,0,0-.37c-.07-.65-.17-1.31-.21-2s.17-.86.78-1h.05c.3-2.18.68-3.31,2.19-3.31,1.3,0,1.83.26,2.11,1.31l.19.08a.49.49,0,0,1,.22.3,4.79,4.79,0,0,1,0,.65,5.47,5.47,0,0,0,.06.72c.06.28.21.38.48.26a.9.9,0,0,1,.76,0,1.9,1.9,0,0,0,.29.06l.32-.57a1,1,0,0,1,1.26-.38.45.45,0,0,1,.3.4,4,4,0,0,1-.08.64c0,.17-.09.34-.11.51s.06.14.12.27c.09-.13.16-.2.18-.27,0-.24.06-.48.1-.72a4.17,4.17,0,0,1,.53-1.74c.6-.53,1.09-.29,1.61-.18A2.47,2.47,0,0,0,191,205.63Zm-11.47-1.05-1.24-.48a.48.48,0,0,1-.31-.38c-.09-.43-.19-.86-.26-1.3s-.18-1.11-.24-1.67c0-.31,0-.62,0-.95-.16-1.24-.27-2.48-.4-3.72,0-.31-.09-.62-.15-1a1.6,1.6,0,0,1,1.65-1,1.42,1.42,0,0,1,1.41,1.15,6.37,6.37,0,0,1,.2,1.75c-.08,1.49,0,3,0,4.48,0,.54,0,1.08,0,1.62A1.74,1.74,0,0,1,179.5,204.58Zm10.27-7.16a9.25,9.25,0,0,0-.77,1.5.8.8,0,0,1-.17.24c-.65.75-1.21,1.58-1.9,2.31-.42.44-.84.89-1.24,1.35a5.4,5.4,0,0,0-.27.51,1.31,1.31,0,0,1-.39.42,1.55,1.55,0,0,1-.8.3,3.46,3.46,0,0,1-1-.39c-.08,0-.13-.14-.18-.2a1.55,1.55,0,0,1,.39-1.09,1.2,1.2,0,0,0,.32-1,1,1,0,0,1,.44-.94c.52-.44,1-1,1.46-1.45.22-.22.46-.43.69-.65s.28-.53-.13-.72l-.07,0a7.28,7.28,0,0,1-2-1.19,4,4,0,0,0-.87-.54,1.78,1.78,0,0,1-.91-1.57.3.3,0,0,1,.09-.2,4.69,4.69,0,0,1,.88-.51,1,1,0,0,1,.85.09l.33.17c.17-.12.33-.24.49-.34a1.16,1.16,0,0,1,1.65.19,4.58,4.58,0,0,1,.31.41,4.21,4.21,0,0,0,.47.56c.4.35.85.66,1.24,1a13.7,13.7,0,0,1,1,1.09A.56.56,0,0,1,189.77,197.42Z" fill="#eeb041"/><path d="M171.63,195.1l0,0,0,0Z" fill="#eeb041"/><path d="M190.57,209.08l0-.34h-.11a.72.72,0,0,0,0,.17C190.44,209,190.4,209.08,190.57,209.08Z" fill="#eeb041"/><path d="M171.64,195.16a.83.83,0,0,0,.06.94,1.26,1.26,0,0,0,.21-.33A.55.55,0,0,0,171.64,195.16Z" fill="#eeb041"/><path d="M179.86,213.51h.08a4.92,4.92,0,0,0,0-.56c0-.09-.1-.12-.2,0Z" fill="#eeb041"/><path d="M211,170c-1.17-10.49-1.17-16.9-1.75-22.14a71,71,0,0,1-.81-7.58c0-3.38-2.68-5.24-7.34-5.24-2.33,0-16.31-.47-18.65-.47-3.5,0-12.82.47-16.9.47-5.24,0-8.16,1.75-8.16,5.24,0,2.33-.35,3.5-.58,6.41-.47,6.41-.58,11.65-2.33,28.55-1.63,16.32-2.68,29.48-3.5,37.29a42.27,42.27,0,0,0-.58,5.83c0,2.91,2.33,4.08,5.24,4.08,3.61,0,15.73-.35,18.06,0a7.57,7.57,0,0,0,2.09-.23,2.36,2.36,0,0,1-.6-.82c-.29-.74-.44-1.51-.68-2.26-.08-.25-.15-.51-.21-.76a11.79,11.79,0,0,1-.34-1.46,10.47,10.47,0,0,0-.39-1.46c-.23-.94-.51-1.86-.78-2.79-.21-.71-.35-1.45-.53-2.18-.12-.49-.24-1-.37-1.47,0-.11-.06-.21-.08-.32-.11-.69-.22-1.39-.31-2.09s-.18-1.57-.27-2.36a1.27,1.27,0,0,0,0-.26c-.18-.54-.37-1.08-.54-1.62-.07-.23-.11-.47-.16-.7,0,0,0-.1,0-.13a4.92,4.92,0,0,1-.34-1,17.79,17.79,0,0,1-.45-1.85c0-.13,0-.26-.08-.39a4.77,4.77,0,0,1-.16-2.09c.05-.59.13-1.18.12-1.77a11.21,11.21,0,0,1,.14-2c.08-.47.2-.94.32-1.41.24-.91.49-1.82.75-2.73.15-.51.32-1,.49-1.5a.76.76,0,0,1,.08-.18c.53-.81,1-1.64,1.6-2.4.25-.33.52-.64.77-1a2.51,2.51,0,0,0,.51-.83.65.65,0,0,1,.14-.22,8.39,8.39,0,0,0,1.43-2.64c.26-.75.59-1.47.85-2.21s.4-1.25.55-1.89a2.48,2.48,0,0,1,.42-1,1.16,1.16,0,0,0,.24-.6,7.48,7.48,0,0,0,.09-1.51c0-.33,0-.66,0-1,0-.55-.06-1.1-.1-1.65,0-.7-.08-1.4-.13-2.1,0-.33-.07-.66-.11-1a.68.68,0,0,1,.2-.6,1.05,1.05,0,0,0,.23-1.26c-.18-.45-.27-.93-.4-1.39a.63.63,0,0,0-.42-.51c0,.12-.06.22-.08.32a.64.64,0,0,1-.55.5,1.29,1.29,0,0,1-1.43-.69,8.9,8.9,0,0,1-.72-2.11.87.87,0,0,1,.58-.94,2.72,2.72,0,0,1,.83-.16c.81,0,1.63,0,2.44,0a2,2,0,0,0,.59-.07c.21-.06.4-.2.62-.06a9.48,9.48,0,0,1,2.15-.14,1.09,1.09,0,0,0,.33,0,7.34,7.34,0,0,1,1.81-.29,1.27,1.27,0,0,0,.38-.08,4.58,4.58,0,0,1,2.25-.39c.19,0,.44,0,.53.19a1,1,0,0,1,.12.88c0,.08-.08.16-.12.23a1.55,1.55,0,0,1-.15.22c-.21.24-.12.66-.49.82a8.08,8.08,0,0,0-.85.49l-.14.1a11.82,11.82,0,0,0-.18,2c0,1.49,0,3,.09,4.48a7.69,7.69,0,0,0,0,1c.13.67.15,1.35.27,2a16.89,16.89,0,0,0,.59,2.57c.08.23.1.47.16.71s.12.42.18.63c0,0,0,0,0,.06a6.35,6.35,0,0,0,.59,1.8,4.06,4.06,0,0,0,.6,1.09,11,11,0,0,1,1.46,2.34c.22.48.48.93.73,1.4a1.37,1.37,0,0,1,.12.23,13.79,13.79,0,0,0,1.3,2.72,35.39,35.39,0,0,1,1.61,3.17c0,.08.06.17.1.25l1,1.87a13.46,13.46,0,0,1,1,2.51c.16.57.32,1.14.49,1.71a1.12,1.12,0,0,1,.06.19c.08.87.3,1.73.31,2.62,0,.42,0,.84,0,1.25s-.08.74-.11,1.11,0,.53,0,.79a.94.94,0,0,0,.16.56,1.58,1.58,0,0,1,.17,1.14c-.13.8-.27,1.6-.41,2.4a20,20,0,0,1-.47,2.18,14.63,14.63,0,0,0-.28,1.69c-.06.39-.14.77-.21,1.16s-.18.69-.21,1c-.1.9-.31,1.77-.46,2.66s-.4,2.06-.58,3.1c-.09.5-.13,1-.18,1.5a2.47,2.47,0,0,1-.13.64c-.08.22,0,.48-.12.7-.2.58-.24,1.2-.48,1.78-.14.34-.12.73-.27,1.08a1.49,1.49,0,0,1-.59.73c6.33-.11,13.68-.11,17.11.12,3.73.23,7-.12,7-4.2,0-4.66-.58-5.83-1.17-10.49C213.59,200.09,213.24,190.42,211,170Z" fill="#eeb041"/><path d="M172.53,200c0,.33-.07.63-.08.94a2.2,2.2,0,0,0,.06.45.52.52,0,0,0,.45.46A3.3,3.3,0,0,0,172.53,200Z" fill="#eeb041"/><path d="M186.36,182.62a.53.53,0,0,0,.21.31.38.38,0,0,0,.3,0,.19.19,0,0,0,.09-.28,6.06,6.06,0,0,0-.42-.65c0-.05-.14,0-.22-.07A5.27,5.27,0,0,0,186.36,182.62Z" fill="#eeb041"/><path d="M183.3,184.79l0,0-.05-.08,0,0Z" fill="#eeb041"/><path d="M173.39,203.56a8.84,8.84,0,0,1-.3-1.25,3.54,3.54,0,0,0-.13-.41,3.78,3.78,0,0,0,.39,2.6.45.45,0,0,0,.13.12A4,4,0,0,0,173.39,203.56Z" fill="#eeb041"/><path d="M179.67,212.36l.09.07s0,0,0,0a.58.58,0,0,0,0-.1Z" fill="#eeb041"/><path d="M193,205.77a.3.3,0,0,0,.16-.24,10.86,10.86,0,0,1,0-1.84c0-1.43.06-2.86,0-4.29a3.13,3.13,0,0,0-.07-.43H193c0,.15-.06.29-.07.44a10.15,10.15,0,0,1-.07,1.25c-.16.87.05,1.76-.15,2.62a.27.27,0,0,0,0,.13,2.24,2.24,0,0,1,0,.92c0,.31,0,.61-.06.92a.89.89,0,0,0,.05.32A.25.25,0,0,0,193,205.77Z" fill="#eeb041"/><path d="M192.34,209.56c-.22.35-.23.36-.21,1A1.15,1.15,0,0,0,192.34,209.56Z" fill="#eeb041"/><path d="M190.44,191.87a1.11,1.11,0,0,0,.07-.81c-.09-.54-.19-1.08-.27-1.62-.05-.37-.06-.74-.12-1.11a1.36,1.36,0,0,0-.17-.49c-.2-.34-.43-.66-.66-1-.06-.08-.12-.2-.25-.11a29.18,29.18,0,0,0,1.28,4.88C190.35,191.69,190.38,191.74,190.44,191.87Z" fill="#eeb041"/><path d="M176.7,161.74a.85.85,0,0,0,.5.6c.27-.38.3-.47.18-.59S177,161.54,176.7,161.74Z" fill="#eeb041"/><path d="M189,222.33a10.59,10.59,0,0,0,1.41.13c-.23-.1-.46-.23-.69-.34Z" fill="#eeb041"/><path d="M255,175.85a80.82,80.82,0,0,1,2.91-11.65c.93-2.56,1.17-8.16,1.17-9.91,0-3-1.4-10.49-1.4-13.4,0-2.33-2.68-5.83-6.76-5.83-6.18,0-8.74-.35-10.49-.35-4.08,0-11.3.35-14,.35-4.43,0-8,0-8.74,5.83a73.32,73.32,0,0,0-.58,9.91c0,2.1-.58,7.11-.58,10.49s1.4,5.24,3.5,5.24c1,0,1.17-.58,2.33-.58s1.75,1.17,1.75,2.33-.58,2.45-1.17,4.66c-1.28,4.78-1.75,9.32-4.08,16.32a43.81,43.81,0,0,0-1.75,12.82c0,2.33.7,11,.58,15.73a4.83,4.83,0,0,0,4.66,4.66c2.33.12,11,.47,13.4.47,2.68,0,6.53-.35,15.73-.35,3.5,0,6.53-2,6.53-4.43s.47-9.21.47-12c0-3.5-.58-8.16-.58-10.49,0-2.8-1.17-4.08-2.91-4.08-1.17,0-1.17.58-2.33.58-.58,0-1.17-.58-1.17-1.75a24.26,24.26,0,0,1,1.17-5.24A71.41,71.41,0,0,0,255,175.85Z" fill="#eeb041"/><path d="M306.23,195.78c-2.56.23-4.89.35-13.63.35-2.33,0-2.33-1-2.33-2.45s0-2.21,1.75-2.21c2.33,0,2.91-.58,5.83-.58,11.65,0,11.89-1.52,11.89-6.53,0-2,.23-5.71.23-7.11s-.45-4.12-.46-5.54a5.73,5.73,0,0,1-.81-.11c-.25-.05-.52-.46-.43-.67a1.13,1.13,0,0,1,.38-.5,1.57,1.57,0,0,1,.56-.14h.14a3.81,3.81,0,0,0-2-2.5,1.09,1.09,0,0,1,.36.44.92.92,0,0,1-.78,1.32,2.33,2.33,0,0,1-.87-.2,1,1,0,0,1-.49-1.14,1.22,1.22,0,0,1,1-.72l.18,0a9.49,9.49,0,0,0-4-.43c-2.56.23-3.85,0-9.56.23-2.33.12-2.91-.82-2.91-2.33s0-2.1,1.75-2.1c3.8,0,10.2-.49,13.56-.65a.83.83,0,0,1,.45-.43c.58-.15,1.18-.23,1.82-.34.23-.57.44-1.13.68-1.68a.81.81,0,0,1,1-.33,1.25,1.25,0,0,1,.6.49,5,5,0,0,0,.47-1.41,1.29,1.29,0,0,1,0-.21,4.68,4.68,0,0,0,.05-.58c0-1.75-.47-4.08-.47-5.83,0-13.4-6.53-16.9-12.35-16.9-4.08,0-6.41-.47-12-.47-2.21,0-10.14.47-14.8.47-5.83,0-9.09,5.83-9.09,14.57s-.93,21.91-.93,28.32.58,28.67.58,34,3.38,10.49,10,10.49c6.41,0,11.42.47,15,.47,4.31,0,6.18-.47,14.1-.47,5.09,0,7.47-1.9,8.58-5.11a.54.54,0,0,1-.26.13c-.34.05-.63-.12-.65-.36s.29-.55.62-.59a1.68,1.68,0,0,1,.44.34c.87-2.92.82-6.81.82-11.31,0-2.33.35-3.5.35-5.24C310.66,198.22,309,195.54,306.23,195.78Zm2.88-14.33a.23.23,0,0,1,.35-.12c0,.13.07.28,0,.37s-.22.09-.32-.06A.25.25,0,0,1,309.12,181.45Zm-1.3,5.34a.65.65,0,0,1,.49.83,2.33,2.33,0,0,1-.92.94c-.2.11-.43.18-.6,0a1.06,1.06,0,0,1-.29-.56A1.26,1.26,0,0,1,307.82,186.79ZM305.63,173a1,1,0,0,1,.92-.56,1.18,1.18,0,0,1,1.07.7.61.61,0,0,1-.25.77c-.28.1-.58.18-.87.25a.7.7,0,0,1-.76-.3A1,1,0,0,1,305.63,173Zm-4.27,5.85a.27.27,0,0,1-.17-.14.38.38,0,0,1,.35-.46.35.35,0,0,1,.25.24A.34.34,0,0,1,301.36,178.82Zm.29-4.75a1.18,1.18,0,0,1-1.34-.58.49.49,0,0,1,.09-.62,2,2,0,0,1,.49-.28,1.17,1.17,0,0,1,1.13.75A.59.59,0,0,1,301.65,174.08Zm2.27-3.6a.78.78,0,0,1,1,.18.87.87,0,0,1-.1,1.21,2.91,2.91,0,0,1-.6.22l-.68-.18a.55.55,0,0,1-.29-.55A1.47,1.47,0,0,1,303.92,170.48Zm.22,4.56a1,1,0,0,1,1,.7,1.21,1.21,0,0,1-.5,1.19.53.53,0,0,1-.2.11,1.77,1.77,0,0,1-1.48-.87.55.55,0,0,1,0-.42A1.29,1.29,0,0,1,304.15,175Zm-5.88-4.91c.06,0,.1-.13.16-.15a3.65,3.65,0,0,0,2.08-2.26c.12-.3.41-.42.77-.51s.54.1.84.17c.88.22,1.09.74.64,1.5a1.78,1.78,0,0,1-1,.84c-.36.11-.74.14-1.11.22s-.62.26-.71,1a3.63,3.63,0,0,1-.11.66.75.75,0,0,1-1.13.3,3,3,0,0,1-.47-.48A.93.93,0,0,1,298.26,170.12ZM306.86,158a.67.67,0,0,1,.72.67.65.65,0,0,1-.52.64.7.7,0,0,1-.74-.66A.78.78,0,0,1,306.86,158Zm-.73-10c.15.15.3.23.32.33a.4.4,0,0,1-.18.34c-.11,0-.27-.07-.41-.11ZM301.45,158a1.52,1.52,0,0,1-.36.22,1.2,1.2,0,0,1-.1-.42c0-.18.19-.23.36-.17S301.59,157.82,301.45,158Zm3.68,2.5a1.4,1.4,0,0,1-1.18,1.46.5.5,0,0,1-.21,0,1,1,0,0,1-.6-.86,1.05,1.05,0,0,1,1.64-1A1.79,1.79,0,0,1,305.13,160.46Zm-2.24-5a2.67,2.67,0,0,1,.66-.18c.18,0,.23.28.13.55s-.2.26-.35.15A3.24,3.24,0,0,1,302.89,155.44Zm.39-11c0-.05.1-.09.15-.13a.64.64,0,0,1,.22,0,1.34,1.34,0,0,1,.72,1c0,.13-.2.36-.37.48a.42.42,0,0,1-.4,0A1.15,1.15,0,0,1,303.28,144.44Zm-.79-6a.83.83,0,0,1,.43.88c-.06.07-.11.16-.16.17-.38.07-.84-.42-.79-.84C302,138.43,302.31,138.3,302.49,138.4Zm-1.5,4h.53c.07,0,.22,0,.36.08a.88.88,0,0,1,.52.9c0,.24-.29.41-.7.42a3.19,3.19,0,0,1-.45,0,.88.88,0,0,1-.73-.75A.56.56,0,0,1,301,142.37Zm-1.1,4.76c.27-.12.55-.2.7-.25a.7.7,0,0,1,.78.46c.07.26-.07.74-.23.8a.76.76,0,0,1-.43.06,4.14,4.14,0,0,1-.81-.34C299.65,147.72,299.65,147.23,299.89,147.12Zm6.31,56.81a2.31,2.31,0,0,1,.51.31.49.49,0,0,1,.07.6c0,.05-.11.12-.15.11a.86.86,0,0,1-.6-.82C306,204.07,306.12,204,306.2,203.93Zm-4.5-4.79-.26-.15.19-.3.16.12Zm2.39,7.63c-.1,0-.16-.17-.29-.31a3.91,3.91,0,0,1,.5-.32.49.49,0,0,1,.2.27A.33.33,0,0,1,304.1,206.77Zm2.07,1.77a1.12,1.12,0,0,1,.39-.15,1,1,0,0,1,.78.7.77.77,0,0,1-.12.82.82.82,0,0,1-1.17-.15A1,1,0,0,1,306.17,208.54Zm1.18,5.72a1.74,1.74,0,0,1-.52.37.53.53,0,0,1-.72-.27.52.52,0,0,1,.24-.56,5.13,5.13,0,0,1,.61-.31,2.25,2.25,0,0,1,.47.39A.41.41,0,0,1,307.35,214.25Zm1.94-1.59a1,1,0,0,1-.62.08c-.18,0-.32-.34-.24-.53a7.72,7.72,0,0,1,.45-1c.05-.09.26-.09.39-.13s.29.11.34.22A1,1,0,0,1,309.29,212.66Z" fill="#eeb041"/><path d="M64,194.2c0,.18.05.26.17.19s0-.11.06-.17l-.1-.17S64,194.14,64,194.2Z" fill="#211b21"/></g></svg>